<svg width="591" height="18" viewBox="0 0 591 18" fill="none" xmlns="http://www.w3.org/2000/svg">
<g class='bars' >
<rect y="5" width="3" height="8" rx="1" fill="#8e8e89"/>
<rect x="4" y="7" width="3" height="4" rx="1" fill="#8e8e89"/>
<rect x="8" y="3" width="3" height="12" rx="1" fill="#8e8e89"/>
<rect x="12" y="7" width="3" height="4" rx="1" fill="#8e8e89"/>
<rect x="16" y="7" width="3" height="4" rx="1" fill="#8e8e89"/>
<rect x="20" y="5" width="3" height="8" rx="1" fill="#8e8e89"/>
<rect x="24" width="3" height="18" rx="1" fill="#8e8e89"/>
<rect x="28" y="5" width="3" height="8" rx="1" fill="#8e8e89"/>
<rect x="32" y="5" width="3" height="8" rx="1" fill="#8e8e89"/>
<rect x="36" y="5" width="3" height="8" rx="1" fill="#8e8e89"/>
<rect x="40" y="7" width="3" height="4" rx="1" fill="#8e8e89"/>
<rect x="44" y="7" width="3" height="4" rx="1" fill="#8e8e89"/>
<rect x="48" y="7" width="3" height="4" rx="1" fill="#8e8e89"/>
<rect x="52" y="5" width="3" height="8" rx="1" fill="#8e8e89"/>
<rect x="56" y="7" width="3" height="4" rx="1" fill="#8e8e89"/>
<rect x="60" y="4" width="3" height="10" rx="1" fill="#8e8e89"/>
<rect x="64" y="5" width="3" height="8" rx="1" fill="#8e8e89"/>
<rect x="68" y="4" width="3" height="10" rx="1" fill="#8e8e89"/>
<rect x="72" y="5" width="3" height="8" rx="1" fill="#8e8e89"/>
<rect x="76" y="7" width="3" height="4" rx="1" fill="#8e8e89"/>
<rect x="80" y="7" width="3" height="4" rx="1" fill="#8e8e89"/>
<rect x="84" y="7" width="3" height="4" rx="1" fill="#8e8e89"/>
<rect x="88" y="5" width="3" height="8" rx="1" fill="#8e8e89"/>
<rect x="92" y="7" width="3" height="4" rx="1" fill="#8e8e89"/>
<rect x="96" y="5" width="3" height="8" rx="1" fill="#8e8e89"/>
<rect x="100" y="5" width="3" height="8" rx="1" fill="#8e8e89"/>
<rect x="104" y="7" width="3" height="4" rx="1" fill="#8e8e89"/>
<rect x="108" y="3" width="3" height="12" rx="1" fill="#8e8e89"/>
<rect x="112" y="7" width="3" height="4" rx="1" fill="#8e8e89"/>
<rect x="116" y="7" width="3" height="4" rx="1" fill="#8e8e89"/>
<rect x="120" y="5" width="3" height="8" rx="1" fill="#8e8e89"/>
<rect x="124" y="7" width="3" height="4" rx="1" fill="#8e8e89"/>
<rect x="128" y="7" width="3" height="4" rx="1" fill="#8e8e89"/>
<rect x="132" y="7" width="3" height="4" rx="1" fill="#8e8e89"/>
<rect x="136" y="5" width="3" height="8" rx="1" fill="#8e8e89"/>
<rect x="140" y="7" width="3" height="4" rx="1" fill="#8e8e89"/>
<rect x="144" y="7" width="3" height="4" rx="1" fill="#8e8e89"/>
<rect x="148" y="7" width="3" height="4" rx="1" fill="#8e8e89"/>
<rect x="152" y="5" width="3" height="8" rx="1" fill="#8e8e89"/>
<rect x="156" y="7" width="3" height="4" rx="1" fill="#8e8e89"/>
<rect x="160" width="3" height="18" rx="1" fill="#8e8e89"/>
<rect x="164" width="3" height="18" rx="1" fill="#8e8e89"/>
<rect x="168" width="3" height="18" rx="1" fill="#8e8e89"/>
<rect x="172" y="5" width="3" height="8" rx="1" fill="#8e8e89"/>
<rect x="176" y="7" width="3" height="4" rx="1" fill="#8e8e89"/>
<rect x="180" y="7" width="3" height="4" rx="1" fill="#8e8e89"/>
<rect x="184" y="7" width="3" height="4" rx="1" fill="#8e8e89"/>
<rect x="188" y="5" width="3" height="8" rx="1" fill="#8e8e89"/>
<rect x="192" y="7" width="3" height="4" rx="1" fill="#8e8e89"/>
<rect x="196" width="3" height="18" rx="1" fill="#8e8e89"/>
<rect x="200" width="3" height="18" rx="1" fill="#8e8e89"/>
<rect x="204" y="5" width="3" height="8" rx="1" fill="#8e8e89"/>
<rect x="208" y="7" width="3" height="4" rx="1" fill="#8e8e89"/>
<rect x="212" y="3" width="3" height="12" rx="1" fill="#8e8e89"/>
<rect x="216" y="7" width="3" height="4" rx="1" fill="#8e8e89"/>
<rect x="220" y="7" width="3" height="4" rx="1" fill="#8e8e89"/>
<rect x="224" y="5" width="3" height="8" rx="1" fill="#8e8e89"/>
<rect x="228" y="5" width="3" height="8" rx="1" fill="#8e8e89"/>
<rect x="232" y="7" width="3" height="4" rx="1" fill="#8e8e89"/>
<rect x="236" y="3" width="3" height="12" rx="1" fill="#8e8e89"/>
<rect x="240" y="7" width="3" height="4" rx="1" fill="#8e8e89"/>
<rect x="244" y="7" width="3" height="4" rx="1" fill="#8e8e89"/>
<rect x="248" y="5" width="3" height="8" rx="1" fill="#8e8e89"/>
<rect x="252" y="3" width="3" height="12" rx="1" fill="#8e8e89"/>
<rect x="256" y="4" width="3" height="10" rx="1" fill="#8e8e89"/>
<rect x="260" y="4" width="3" height="10" rx="1" fill="#8e8e89"/>
<rect x="264" y="5" width="3" height="8" rx="1" fill="#8e8e89"/>
<rect x="268" y="7" width="3" height="4" rx="1" fill="#8e8e89"/>
<rect x="272" y="7" width="3" height="4" rx="1" fill="#8e8e89"/>
<rect x="276" y="7" width="3" height="4" rx="1" fill="#8e8e89"/>
<rect x="280" y="7" width="3" height="4" rx="1" fill="#8e8e89"/>
<rect x="284" y="4" width="3" height="10" rx="1" fill="#8e8e89"/>
<rect x="288" y="7" width="3" height="4" rx="1" fill="#8e8e89"/>
<rect x="292" y="7" width="3" height="4" rx="1" fill="#8e8e89"/>
<rect x="296" y="7" width="3" height="4" rx="1" fill="#8e8e89"/>
<rect x="300" y="5" width="3" height="8" rx="1" fill="#8e8e89"/>
<rect x="304" y="7" width="3" height="4" rx="1" fill="#8e8e89"/>
<rect x="308" width="3" height="18" rx="1" fill="#8e8e89"/>
<rect x="312" width="3" height="18" rx="1" fill="#8e8e89"/>
<rect x="316" y="5" width="3" height="8" rx="1" fill="#8e8e89"/>
<rect x="320" width="3" height="18" rx="1" fill="#8e8e89"/>
<rect x="324" y="3" width="3" height="12" rx="1" fill="#8e8e89"/>
<rect x="328" y="5" width="3" height="8" rx="1" fill="#8e8e89"/>
<rect x="332" y="7" width="3" height="4" rx="1" fill="#8e8e89"/>
<rect x="336" y="3" width="3" height="12" rx="1" fill="#8e8e89"/>
<rect x="340" y="7" width="3" height="4" rx="1" fill="#8e8e89"/>
<rect x="344" y="7" width="3" height="4" rx="1" fill="#8e8e89"/>
<rect x="348" y="5" width="3" height="8" rx="1" fill="#8e8e89"/>
<rect x="352" y="7" width="3" height="4" rx="1" fill="#8e8e89"/>
<rect x="356" y="3" width="3" height="12" rx="1" fill="#8e8e89"/>
<rect x="360" y="7" width="3" height="4" rx="1" fill="#8e8e89"/>
<rect x="364" y="7" width="3" height="4" rx="1" fill="#8e8e89"/>
<rect x="368" y="7" width="3" height="4" rx="1" fill="#8e8e89"/>
<rect x="372" y="7" width="3" height="4" rx="1" fill="#8e8e89"/>
<rect x="376" y="7" width="3" height="4" rx="1" fill="#8e8e89"/>
<rect x="380" y="5" width="3" height="8" rx="1" fill="#8e8e89"/>
<rect x="384" y="5" width="3" height="8" rx="1" fill="#8e8e89"/>
<rect x="388" y="7" width="3" height="4" rx="1" fill="#8e8e89"/>
<rect x="392" y="3" width="3" height="12" rx="1" fill="#8e8e89"/>
<rect x="396" y="5" width="3" height="8" rx="1" fill="#8e8e89"/>
<rect x="400" y="7" width="3" height="4" rx="1" fill="#8e8e89"/>
<rect x="404" width="3" height="18" rx="1" fill="#8e8e89"/>
<rect x="408" width="3" height="18" rx="1" fill="#8e8e89"/>
<rect x="412" y="5" width="3" height="8" rx="1" fill="#8e8e89"/>
<rect x="416" y="5" width="3" height="8" rx="1" fill="#8e8e89"/>
<rect x="420" y="7" width="3" height="4" rx="1" fill="#8e8e89"/>
<rect x="424" y="3" width="3" height="12" rx="1" fill="#8e8e89"/>
<rect x="428" y="7" width="3" height="4" rx="1" fill="#8e8e89"/>
<rect x="432" y="7" width="3" height="4" rx="1" fill="#8e8e89"/>
<rect x="436" y="5" width="3" height="8" rx="1" fill="#8e8e89"/>
<rect x="440" y="7" width="3" height="4" rx="1" fill="#8e8e89"/>
<rect x="444" y="7" width="3" height="4" rx="1" fill="#8e8e89"/>
<rect x="448" y="7" width="3" height="4" rx="1" fill="#8e8e89"/>
<rect x="452" y="5" width="3" height="8" rx="1" fill="#8e8e89"/>
<rect x="456" y="7" width="3" height="4" rx="1" fill="#8e8e89"/>
<rect x="460" y="3" width="3" height="12" rx="1" fill="#8e8e89"/>
<rect x="464" y="7" width="3" height="4" rx="1" fill="#8e8e89"/>
<rect x="468" y="7" width="3" height="4" rx="1" fill="#8e8e89"/>
<rect x="472" y="7" width="3" height="4" rx="1" fill="#8e8e89"/>
<rect x="476" y="7" width="3" height="4" rx="1" fill="#8e8e89"/>
<rect x="480" y="7" width="3" height="4" rx="1" fill="#8e8e89"/>
<rect x="484" y="5" width="3" height="8" rx="1" fill="#8e8e89"/>
<rect x="488" y="5" width="3" height="8" rx="1" fill="#8e8e89"/>
<rect x="492" y="7" width="3" height="4" rx="1" fill="#8e8e89"/>
<rect x="496" y="3" width="3" height="12" rx="1" fill="#8e8e89"/>
<rect x="500" y="5" width="3" height="8" rx="1" fill="#8e8e89"/>
<rect x="504" y="7" width="3" height="4" rx="1" fill="#8e8e89"/>
<rect x="508" y="7" width="3" height="4" rx="1" fill="#8e8e89"/>
<rect x="512" y="7" width="3" height="4" rx="1" fill="#8e8e89"/>
<rect x="516" y="7" width="3" height="4" rx="1" fill="#8e8e89"/>
<rect x="520" y="5" width="3" height="8" rx="1" fill="#8e8e89"/>
<rect x="524" y="5" width="3" height="8" rx="1" fill="#8e8e89"/>
<rect x="528" y="7" width="3" height="4" rx="1" fill="#8e8e89"/>
<rect x="532" y="3" width="3" height="12" rx="1" fill="#8e8e89"/>
<rect x="536" y="5" width="3" height="8" rx="1" fill="#8e8e89"/>
<rect x="540" y="7" width="3" height="4" rx="1" fill="#8e8e89"/>
<rect x="544" width="3" height="18" rx="1" fill="#8e8e89"/>
<rect x="548" y="7" width="3" height="4" rx="1" fill="#8e8e89"/>
<rect x="552" width="3" height="18" rx="1" fill="#8e8e89"/>
<rect x="556" width="3" height="18" rx="1" fill="#8e8e89"/>
<rect x="560" y="5" width="3" height="8" rx="1" fill="#8e8e89"/>
<rect x="564" y="5" width="3" height="8" rx="1" fill="#8e8e89"/>
<rect x="568" y="5" width="3" height="8" rx="1" fill="#8e8e89"/>
<rect x="572" y="5" width="3" height="8" rx="1" fill="#8e8e89"/>
<rect x="576" y="7" width="3" height="4" rx="1" fill="#8e8e89"/>
<rect x="580" y="7" width="3" height="4" rx="1" fill="#8e8e89"/>
<rect x="584" y="7" width="3" height="4" rx="1" fill="#8e8e89"/>
<rect x="588" y="3" width="3" height="12" rx="1" fill="#8e8e89"/>
</g>
</svg>
