<svg width="12" height="12" viewBox="0 0 12 12" fill="none" xmlns="http://www.w3.org/2000/svg">
<g clip-path="url(#clip0_252_2681)">
<path d="M7.44983 0H10.0553C10.2175 0 10.3489 0.131451 10.3489 0.293578V11.7064C10.3489 11.8685 10.2175 12 10.0553 12H7.44983C7.2877 12 7.15625 11.8685 7.15625 11.7064V0.293578C7.15625 0.131451 7.2877 0 7.44983 0Z" fill="#DEDCD3"/>
<path d="M1.94592 0H4.55143C4.71355 0 4.845 0.131451 4.845 0.293578V11.7064C4.845 11.8685 4.71355 12 4.55143 12H1.94592C1.78379 12 1.65234 11.8685 1.65234 11.7064V0.293578C1.65234 0.131451 1.78379 0 1.94592 0Z" fill="#DEDCD3"/>
</g>
<defs>
<clipPath id="clip0_252_2681">
<rect width="12" height="12" fill="white"/>
</clipPath>
</defs>
</svg>
