<svg width="12" height="12" viewBox="0 0 12 12" fill="none" xmlns="http://www.w3.org/2000/svg">
<path fill-rule="evenodd" clip-rule="evenodd" d="M11.2587 5.50799L1.85219 0.0769897C1.76616 0.026911 1.66846 0.000358394 1.56891 0H1.56727C1.46767 0.000395578 1.36993 0.0269619 1.28383 0.0770366C1.19712 0.126485 1.12514 0.198115 1.07526 0.284574C1.02538 0.371033 0.999411 0.469208 1.00001 0.569021V11.4309C0.999616 11.5308 1.02562 11.629 1.07539 11.7156C1.12515 11.8022 1.19692 11.8741 1.28341 11.924C1.36991 11.974 1.46806 12.0002 1.56794 12C1.66781 11.9998 1.76587 11.9732 1.85217 11.923L11.2587 6.49193C11.3451 6.44208 11.4168 6.37037 11.4667 6.28401C11.5166 6.19765 11.5428 6.09968 11.5428 5.99996C11.5428 5.90024 11.5166 5.80227 11.4667 5.71591C11.4168 5.62955 11.3451 5.55784 11.2587 5.50799Z" fill="#DEDCD3"/>
</svg>
